<svg xmlns="http://www.w3.org/2000/svg" width="374" height="268" viewBox="0 0 776.97 555.39"><path d="M376.25 262.23c-4-1.9-7.58-3.26-10.82-5.25-21.88-13.45-40.36-30.92-57.27-50a198.65 198.65 0 0 1-26.41-37.8 6.1 6.1 0 0 1-.75-2.76q0-82.32 0-164.65c0-.49.06-1 .1-1.72h95.17zm-44.79-117.29a42.92 42.92 0 0 1 13.16-17.08l9.15-7.08c1.42-1.07 2.27-2.31 1.29-4-.88-1.54-2-2.91-2.93-4.44s-1.82-1.41-2.88-.41c-2.42 2.29-5.1 4.41-7.12 7-3.58 4.65-6.75 9.61-10.09 14.44a22.77 22.77 0 0 1 1.06-6.37c2.41-8 7-14.73 11.63-21.48a3.85 3.85 0 0 0 .36-3.34 84.53 84.53 0 0 0-5.33-7.18l-9.29 23.79a13.71 13.71 0 0 1-.22-1.81c.37-9 1.47-17.8 4.44-26.35.39-1.12.61-2.8.06-3.68-1.82-2.87-4-5.49-6.3-8.49-2.29 3-4.44 5.69-6.36 8.52a4.17 4.17 0 0 0-.12 2.85c1.43 6.44 3.12 12.83 4.37 19.31.5 2.6.08 5.38.08 8.08H326l-8.45-21.88-5.15 6.69c-.81 1.1-.81 2 .06 3.39 3.47 5.36 6.91 10.77 9.94 16.39 1.86 3.45 3.33 7.23 3.08 11.34-.38.06-.51.11-.54.08a8.7 8.7 0 0 1-.69-.94c-3.9-7-8.09-13.74-14.3-19-3.3-2.8-3.41-2.87-5.64.57a25 25 0 0 1-2 3.29c-1.34 1.45-.62 2.1.59 3 4.3 3.31 8.9 6.35 12.65 10.2s6.62 8.47 9.66 12.91c.39.56-.29 2.4-1 3.07-2.18 2-3.37 4.22-3.08 7.32a8 8 0 0 0 7.33 6.81 7.83 7.83 0 0 0 7.84-6.28c.7-4.34-1.64-7.05-4.84-9.24z" fill="#a4cc3a"/><path d="M381.13 262.13V0h95.28c0 .76.14 1.61.14 2.46q0 81.57 0 163.13a9 9 0 0 1-1.16 4.19c-14.46 26-34.05 47.7-56.34 67.12-9.2 8-18.78 15.53-29.5 21.45-2.55 1.37-5.24 2.36-8.42 3.78zm43.41-129l-.88-1.29c-4.19-5.68-8-11.67-12.69-16.94s-4.89-4.86-8.61 1c-1.51 2.39-1.19 3.48 1.15 5.12 8.28 5.78 16.08 12.12 20.86 21.38.9 1.75 1 2.73-.81 4.18-5.29 4.3-3.8 9.39.33 12.54 3.75 2.86 8.84 1.48 11.42-2.38a7.48 7.48 0 0 0-2.86-10.69 2.37 2.37 0 0 1-.65-2.2c2.43-3.8 4.56-8 7.68-11.12 5-5.08 10.73-9.49 16.38-14.38l-4.94-7.67c-8.51 5.4-13 14-18.86 21.55a13.41 13.41 0 0 1 .69-5c2.55-8 7-15 11.79-21.77.53-.76 1-2.21.68-2.81-1.51-2.46-3.36-4.71-5.56-7.7l-8.57 21.69a2.82 2.82 0 0 1-.7-1.92 77.67 77.67 0 0 1 4.52-25.21c.19-.55.66-1.35.45-1.64-2.22-3.16-4.55-6.23-7-9.57-1.6 2.15-2.71 3.91-4.08 5.43-2.18 2.44-2.63 4.76-1.69 8.15 1.88 6.74 2.93 13.71 4.14 20.62.24 1.34-.34 2.83-.64 4.88l-8.87-22.55-6.34 8.8c10.44 14.71 14.89 24.14 13.66 29.52zM281.89 444.12a18.89 18.89 0 0 1-3.73.77q-16 .09-32 0a21.68 21.68 0 0 1-4-.78v-1.2a28.89 28.89 0 0 1 3.53-.59c6.84-.28 9-1.73 10.08-8.49 1.67-10.85 2.91-21.77 4.15-32.68l6.43-58.08 3.84-35.75a22.75 22.75 0 0 1 .65-4.14c.27-.86 1.08-2.24 1.58-2.21a3.56 3.56 0 0 1 2.51 1.6c2 3.67 3.85 7.44 5.69 11.21l50.81 104.4c.29.6.65 1.17 1.25 2.25l7.06-14.87q23.55-50.43 47.13-100.85c.73-1.54 2.34-2.67 3.54-4 .7 1.65 1.86 3.25 2 4.95l9.54 86.68 3.8 33.65a35.72 35.72 0 0 0 1.46 5.78c2.29 7.86 8.61 9.47 15.61 10.08 2.23.2 4.43.8 6.65.85a7.67 7.67 0 0 0 7.48-4.61 240 240 0 0 0 7.15-16.75l24.62-67.46c.66-1.81 1.47-3.57 2.21-5.35h1a35.36 35.36 0 0 1 2.15 4q14.93 38.32 29.81 76.66a42.27 42.27 0 0 0 4.07 7.62 12.44 12.44 0 0 0 11.04 5.67 1.69 1.69 0 0 1 1.33.61c-8.38 1-16.75.45-26 .35 3.33-2.6 2-4.95 1.07-7.45q-5.06-13-9.87-26c-.64-1.73-1.39-2.51-3.37-2.48l-23.69.13a3.73 3.73 0 0 0-2.89 1.77l-8.73 24.81a13.69 13.69 0 0 0-.49 2.94c-.4 3.7.8 5.12 4.53 5.44.75.06 1.49.17 2.23.26l.1.77a9.38 9.38 0 0 1-2.15.49q-28.63-.4-57.25-.92c-1.8 0-3.58-.71-6.06-1.23 4-3.31 3.14-7.15 2.82-10.69l-7.51-81.48a95.44 95.44 0 0 0-1.72-12.71c-.61 1.13-1.27 2.24-1.82 3.41q-23.06 49.17-46.1 98.34a10.52 10.52 0 0 1-.93 1.87c-.82 1-1.75 2-2.64 3-1.11-1-2.58-1.83-3.27-3.08-13.91-24.81-26.63-50.22-38.36-76.13l-10.79-23.36c-.27-.59-.66-1.12-1.43-2.41l-1 9.61q-3.27 38.22-6.49 76.45a94.12 94.12 0 0 0-.12 10.49c.11 3.63 1.92 5.69 5.52 6.46 1.64.35 3.37.32 5 .56a28.38 28.38 0 0 1 2.86.7zM482.43 403l-12.41-35.4h-1l-11.69 35.41zM66.12 328.84a47.46 47.46 0 0 1-1.05-4.84 16.3 16.3 0 0 0-12.25-14.68c-9.42-2.91-18.87-3.83-27.6 2.14s-11.86 19.26-5.92 28.19A82.44 82.44 0 0 0 31.8 354c7.82 7.26 16.29 13.81 24.22 21 5.57 5 10.37 10.82 13.2 17.94 8.27 20.82-2.13 47.55-27.91 52.41-12.67 2.39-25 1.83-37.11-2.74-2.91-1.1-4.31-2.69-4.19-5.95.24-6.89.17-13.79.25-20.69a3 3 0 0 1 .22-1.46 20.12 20.12 0 0 1 1.65-2.06 9.11 9.11 0 0 1 .93 2.23c.4 3.16.3 6.42 1.08 9.47 1.67 6.48 6.21 10.52 12.28 13 8.82 3.54 17.88 4.92 26.76.86 12.4-5.67 17.54-19.27 13-32.64a35.37 35.37 0 0 0-9.75-14.87c-8-7.32-16.53-14.17-24.58-21.5S7.32 353.42 5.09 342.6C1.64 325.88 8.43 310.85 25 303.92c10.31-4.33 20.92-3.29 31.56-1.95 3.46.44 6.92.92 10.33 1.6.76.15 1.93 1.23 1.93 1.88-.09 7-.35 13.95-.64 20.92a9.84 9.84 0 0 1-.84 2.54zm555.37 115.72h-3.71c-3.89 0-7.79-.16-11.69-.1-8 .14-13.65-3.89-18.22-9.85q-10.2-13.32-20.16-26.82a4.84 4.84 0 0 0-4.42-2.37c-4.67.12-9.34 0-14.36 0v21.24a120.8 120.8 0 0 0 .75 10.75c.47 4.46 2 5.7 6.37 5.74a64.6 64.6 0 0 1 4.18.17c.11 0 .19.31.53.9h-30.69l-.11-.7a19 19 0 0 1 3.08-.34c2.38.08 3.93-.94 4.24-3.28a102.14 102.14 0 0 0 1.3-12.77l-.35-60.53c0-2.6-.26-5.19-.41-7.78-.26-4.5-2.26-6.39-6.83-6.49h-3.37l-.11-.84a5.08 5.08 0 0 1 1.62-.6c12.68.13 25.39-.08 38 .59 11.45.6 19.58 7.21 21.83 17.27 2 8.92-.72 17-6.16 24.15-2.46 3.23-5.25 6.21-8.29 9.76l28.15 33.23c4.17 4.75 9.92 6.91 16.3 7.16.84 0 1.67.19 2.5.29zm-73.4-67.77h0l-.07 18.6c-.09 2.68.88 3.91 3.41 4.16 3.77.38 7.53 1 11.3 1.1 6.55.24 10.92-3.08 13.57-8.92 2.75-6.06 3-12.49 2-18.82-1.11-7-4.6-12.73-10.9-16.39-4.34-2.52-9.09-2.74-13.93-2.31-5.38.48-5.38.49-5.37 5.78l-.01 16.8zm225.65-26.74v16.36l-.52.07a4.55 4.55 0 0 1-.69-1.47C772 357.76 767.7 354.22 761 353c-6.46-1.21-12.55-.89-17.45 4.28-4.57 4.82-4.89 13.89.13 19.15 5.28 5.53 11.25 10.41 17 15.48 5 4.37 9.66 8.87 13.09 14.65 7.32 12.33 2.08 32.49-15.21 37-9.11 2.38-18.2 3.19-27.28-.33-2.26-.88-3.44-2.05-3.3-4.6.24-4.18.22-8.38.42-12.56a4.15 4.15 0 0 1 1.51-2.89c.11 1.05.3 2.09.32 3.14.12 6.45 3.25 11.06 9.3 13.24 6.37 2.3 12.83 3.36 19-.5 9-5.63 10.7-18.48 3.41-27-2.91-3.38-6.38-6.29-9.62-9.39-5.38-5.17-11.19-10-16.09-15.55a23.81 23.81 0 0 1-2.56-27.89c4.78-7.67 12.39-10.88 21.18-10.75 6.32.05 12.63 1 18.89 1.57zm-604.4-.49v16.63l-.92.16a17 17 0 0 1-.75-3c-.19-3.16-1.73-5.32-4.73-6.2a30.13 30.13 0 0 0-7.28-1.45c-6.08-.21-12.17-.07-18.52-.07a4.31 4.31 0 0 0-.24 1.19q0 36.74.12 73.46a41.69 41.69 0 0 0 1 7.69c.52 2.74 2.32 4.05 5.15 3.94a13 13 0 0 1 5.25.66c-10.34.87-20.69.77-31 .7l-.13-.91a12.49 12.49 0 0 1 2.8-.42c3 .21 4.51-1.36 4.9-4.08a72.13 72.13 0 0 0 1.01-10.12v-70.46c0-.49-.09-1-.2-2.11l-25.34 1.28c-2.7.18-4.76 1.91-6.11 4.35-.73 1.33-1.54 2.62-2.32 3.93l-1-.34 3-15.3c5.41.4 10.24 1 15.07 1.06h49.77c3.48 0 6.95-.38 10.47-.59zm495.37 94.13H634.9l-.21-.81a11.71 11.71 0 0 1 2.56-.77c3.63-.24 4.69-1.05 5.2-4.75a59.42 59.42 0 0 0 .73-8.93c-.1-7.57 0-15.19-.85-22.69-.41-3.69-2.36-7.39-4.3-10.68q-10.2-17.25-20.93-34.16c-2.93-4.61-6.85-8.33-12.72-9.19 1.39-1.78 21.91-2.21 24.72-.67-3.21 3.59-3.34 4.2-.8 8.64l21.26 36.79a15 15 0 0 0 1.43 1.67l2.5-4.6q9-16.21 18-32.42a21.14 21.14 0 0 0 1.54-3.89c1-3-.66-4.79-3-6.63h23.48c-1.23.79-1.69 1.34-2.18 1.36a12.3 12.3 0 0 0-10 5.79L662.5 386.5c-7.46 10.69-10 22.37-8.89 35.15.4 4.67.24 9.38.5 14.07s2.16 6.31 6.75 6.38c1.33 0 2.65.25 4 .38l-.15 1.21zm-391.37 91.47l-1.34 9.49c-.12.79-.32 1.56-.47 2.35-1 5.4-1 5.59-6.51 6.47-4.32.69-8.77.62-13.1 1.3A46.92 46.92 0 0 1 231 553c-15.29-4.55-25-14.53-28-30.39-2.49-13.15.19-25.22 8.92-35.55 7.42-8.77 17.48-12.19 28.6-13.14 10.08-.85 19.9 1.18 29.77 2.66.66.09 1.72 1 1.73 1.5v17.09c0 .39-.41.78-1.08 1.95-.23-1.65-.42-2.46-.44-3.28-.12-5.6-2.47-10-7.64-12.22-12.65-5.4-25.42-5.91-37.75.85-6.23 3.43-9.86 9.22-11.36 16.18-2.13 9.92-2.67 19.81 1.65 29.36 7.42 16.4 23.39 24.58 41.54 21.86 8-1.2 13-5 14.55-13.07a8.11 8.11 0 0 1 .92-1.87zm37.12 19.71c-16.11 1.07-26.54-13.27-26.64-26.66-.11-15.38 11.55-27.7 26.47-27.91 15.84-.22 27.45 10.17 28.12 24.18.88 18.09-13.08 31.65-27.95 30.39zm21-26.3a30.8 30.8 0 0 0-3.69-15.25c-3.83-7.41-10.11-10.86-18.27-10.65s-14.11 4.12-17 11.58c-4.15 10.84-3.19 21.43 4.36 30.67s21.6 9.4 29.24.67c4.3-4.81 5.29-10.83 5.4-17.02zm184.6-27.25v11.37c-.72-7.36-6.23-9.31-12.08-10.18-7.8-1.16-15.62-1.34-21.88 4.87-3.91 3.88-5.47 8.8-5.68 14.09-.44 11.14 2.93 20.57 13.34 26.12a26.86 26.86 0 0 0 18.05 2.41c2-.38 3.05-1 2.6-3.67-.61-3.6-.14-7.37-.18-11.07-.06-5.23-.61-5.84-5.59-6.75h16.66c-4.41 1.06-5 1.77-5 6v14.38a4 4 0 0 1-1.61 3c-10.34 4.61-33.13 4.26-42-11.65-8-14.41-.72-36.92 18.43-38.82 8.12-.78 16.44-.1 24.94-.1zm28.27 4.02v20c5.2-.4 10.45 1.24 15.48-1.49v9c-.53-5.13-4.27-4.44-7.65-4.41h-7v19.7a3.74 3.74 0 0 0 3.43 3.94 34.4 34.4 0 0 0 8 .17c3.06-.44 3.77-3.17 4.37-5.84 0 2.53.1 5.07-.09 7.58 0 .52-1.21 1.34-1.87 1.35-8.85.09-17.7.06-26.75-.21 4.05 0 4.29-2.76 4.32-5.54q.24-21.29.43-42.58c0-3.62-2.32-4.4-5.25-4.81h27.68v8.08c-1.34-5-1.7-5.26-7.14-5.27h-7.2a4.58 4.58 0 0 0-.76.33zM429 502.13h28.29v5c-4.46-3.8-9.77-1.55-14.95-2.33v20.72l15.21-.73v8.7c-.92-1.69-1.35-3.55-2.51-4.34s-3.05-.61-4.62-.67c-2.38-.1-4.76 0-7.42 0v20.17a3.63 3.63 0 0 0 3.7 3.63c3.27.24 6.73.74 9.8 0 2-.52 3.4-3.16 4.91-4.68-.11 1.67-.14 4.06-.49 6.42a2.39 2.39 0 0 1-1.81 1.42c-8.77.09-17.54.06-26.52-.19 4.19-.11 4.34-3 4.4-5.89l.23-9.28c.06-2.2.19-4.35-1.72-6.08-.5-.46-.45-1.66-.45-2.52V509.3c-.05-5.8-.05-5.86-6.05-7.17zm-81.5.59h16.57c-1.48.71-3.54 1-4.29 2.21-.87 1.35-.77 3.43-.78 5.2q-.09 16.33 0 32.68c0 7.38 1.19 8.51 8.48 8.67a44 44 0 0 0 5.38-.29c3.35-.34 4.45-1.53 6.61-6.21-.36 2.44-.57 4.91-1.15 7.3a2.8 2.8 0 0 1-2.1 1.59c-9.18.11-18.36.07-27.66-.27 3.1-.12 3.8-2.12 3.82-4.51q.17-21 .26-42c.01-3.45-2.57-3.75-5.14-4.37zm72.76 41.98v2c-.07 6.31-.56 6.79-6.72 6.78-8 0-16 0-24.13-.14 3.14-.22 3.87-2.35 3.94-4.83l.3-17.38v-21.89c0-5.42-.18-5.63-5.4-6.74h16.57c-4.61 1.05-5 1.49-5 6.43l.46 36.85c.1 4.28 1.22 5.13 5.5 5.42a48.59 48.59 0 0 0 6.27 0c5.34-.2 6.53-1.32 8.21-6.5zm281.16-172.59c2.63-9.85 8.15-19.53 1.38-29.89l.78-.72a79.48 79.48 0 0 1 9 2.9c.86.37 1.47 2.33 1.43 3.55-.2 7-3.5 12.95-7.12 18.69-1.32 2.11-3 4-4.44 6zm-531.08 64.33a6.27 6.27 0 0 1 6.27-6.52c4-.09 7.08 2.55 7.14 6.06a7.2 7.2 0 0 1-7.24 7.49c-3.51-.02-6.09-2.95-6.17-7.03zm161.12-291.5c3.2 2.19 5.52 4.9 4.82 9.3a7.83 7.83 0 0 1-7.84 6.28 8 8 0 0 1-7.33-6.81c-.29-3.1.9-5.29 3.08-7.32.72-.67 1.4-2.51 1-3.07-3-4.44-5.94-9.08-9.66-12.91s-8.35-6.89-12.65-10.2c-1.21-.93-1.93-1.58-.59-3a25 25 0 0 0 2-3.29c2.23-3.44 2.34-3.37 5.64-.57 6.21 5.26 10.4 12 14.3 19a8.7 8.7 0 0 0 .69.94s.16 0 .54-.08c.25-4.11-1.22-7.89-3.08-11.34-3-5.62-6.47-11-9.94-16.39-.87-1.35-.87-2.29-.06-3.39 1.59-2.14 3.24-4.22 5.15-6.69l8.45 21.88h.44c0-2.7.42-5.48-.08-8.08-1.25-6.48-2.94-12.87-4.37-19.31a4.17 4.17 0 0 1 .12-2.85c1.92-2.83 4.07-5.5 6.36-8.52 2.27 3 4.48 5.62 6.3 8.49.55.88.33 2.56-.06 3.68-3 8.55-4.07 17.38-4.44 26.35a13.71 13.71 0 0 0 .22 1.81l9.29-23.79a84.53 84.53 0 0 1 5.33 7.17 3.85 3.85 0 0 1-.36 3.34c-4.64 6.75-9.22 13.53-11.63 21.48a22.77 22.77 0 0 0-1.06 6.36c3.34-4.83 6.51-9.79 10.09-14.44 2-2.61 4.7-4.73 7.12-7 1.06-1 2-1 2.88.41s2.05 2.9 2.93 4.44c1 1.71.13 2.95-1.29 4a420.5 420.5 0 0 0-9.15 7.08 42.92 42.92 0 0 0-13.16 17.04z" fill="#075ba8"/><path d="M424.54 133.15c1.23-5.38-3.22-14.81-13.69-29.43l6.34-8.8 8.87 22.55c.3-2 .88-3.54.64-4.88-1.21-6.91-2.26-13.88-4.14-20.62-.94-3.39-.49-5.71 1.69-8.15 1.37-1.52 2.48-3.28 4.08-5.43l7 9.57c.21.29-.26 1.09-.45 1.64a77.67 77.67 0 0 0-4.52 25.21 2.82 2.82 0 0 0 .7 1.92l8.6-21.73c2.2 3 4 5.24 5.56 7.7.36.6-.15 2.05-.68 2.81-4.8 6.79-9.24 13.77-11.79 21.77a13.41 13.41 0 0 0-.69 5c5.88-7.58 10.35-16.15 18.86-21.55l4.94 7.67c-5.65 4.89-11.36 9.3-16.38 14.38-3.12 3.16-5.25 7.32-7.68 11.12a2.37 2.37 0 0 0 .65 2.2 7.48 7.48 0 0 1 2.86 10.69c-2.58 3.86-7.67 5.24-11.42 2.38-4.13-3.15-5.62-8.24-.33-12.54 1.79-1.45 1.71-2.43.81-4.18-4.78-9.26-12.58-15.6-20.86-21.38-2.34-1.64-2.66-2.73-1.15-5.12 3.72-5.89 4-6.28 8.61-1s8.5 11.26 12.69 16.94c.26.33.5.7.88 1.26z" fill="#a4cc3a"/></svg>