<svg id="visual" viewBox="0 0 900 600" width="900" height="600" xmlns="http://www.w3.org/2000/svg" xmlns:xlink="http://www.w3.org/1999/xlink" version="1.1"><rect x="0" y="0" width="900" height="600" fill="#001220"></rect><defs><linearGradient id="grad1_0" x1="33.3%" y1="100%" x2="100%" y2="0%"><stop offset="20%" stop-color="#fbae3c" stop-opacity="1"></stop><stop offset="80%" stop-color="#fbae3c" stop-opacity="1"></stop></linearGradient></defs><defs><linearGradient id="grad1_1" x1="33.3%" y1="100%" x2="100%" y2="0%"><stop offset="20%" stop-color="#fbae3c" stop-opacity="1"></stop><stop offset="80%" stop-color="#001220" stop-opacity="1"></stop></linearGradient></defs><defs><linearGradient id="grad2_0" x1="0%" y1="100%" x2="66.7%" y2="0%"><stop offset="20%" stop-color="#fbae3c" stop-opacity="1"></stop><stop offset="80%" stop-color="#fbae3c" stop-opacity="1"></stop></linearGradient></defs><defs><linearGradient id="grad2_1" x1="0%" y1="100%" x2="66.7%" y2="0%"><stop offset="20%" stop-color="#001220" stop-opacity="1"></stop><stop offset="80%" stop-color="#fbae3c" stop-opacity="1"></stop></linearGradient></defs><g transform="translate(900, 600)"><path d="M-378.6 0C-307.1 -30.3 -235.7 -60.6 -213 -123C-190.4 -185.4 -216.7 -279.9 -189.3 -327.9C-161.9 -375.8 -81 -377.2 0 -378.6L0 0Z" fill="#96446e"></path><path d="M-189.3 0C-153.6 -15.1 -117.8 -30.3 -106.5 -61.5C-95.2 -92.7 -108.3 -140 -94.6 -163.9C-81 -187.9 -40.5 -188.6 0 -189.3L0 0Z" fill="#fbae3c"></path></g><g transform="translate(0, 0)"><path d="M378.6 0C290.5 20.7 202.4 41.4 181.9 105C161.3 168.6 208.3 275.1 189.3 327.9C170.2 380.6 85.1 379.6 0 378.6L0 0Z" fill="#96446e"></path><path d="M189.3 0C145.2 10.3 101.2 20.7 90.9 52.5C80.7 84.3 104.2 137.6 94.6 163.9C85.1 190.3 42.6 189.8 0 189.3L0 0Z" fill="#fbae3c"></path></g></svg>